<svg width="34" height="34" viewBox="0 0 34 34" fill="none" xmlns="http://www.w3.org/2000/svg">
<path fill-rule="evenodd" clip-rule="evenodd" d="M16.8844 33.2852C26.0443 33.2852 33.4698 25.8597 33.4698 16.6998C33.4698 7.54003 26.0443 0.114502 16.8844 0.114502C7.72455 0.114502 0.299042 7.54003 0.299042 16.6998C0.299042 25.8597 7.72455 33.2852 16.8844 33.2852ZM22.0585 7.84066C22.3103 6.94606 21.4422 6.41705 20.6493 6.98192L9.58114 14.8668C8.72127 15.4794 8.85653 16.6998 9.78431 16.6998H12.6989V16.6773H18.3792L13.7508 18.3104L11.7104 25.5591C11.4585 26.4537 12.3266 26.9827 13.1195 26.4178L24.1877 18.5329C25.0476 17.9204 24.9122 16.6998 23.9845 16.6998H19.5647L22.0585 7.84066Z" fill="#E9E7DA"/>
</svg>
