<svg width="142" height="34" viewBox="0 0 142 34" fill="none" xmlns="http://www.w3.org/2000/svg">
<g clip-path="url(#clip0_1_82)">
<path d="M43.7377 23.334H53.6491V20.3486H47.2604V9.10376H43.7377V23.334Z" fill="#E9E7DA"/>
<path d="M59.5212 21.3437C58.1082 21.3437 57.3718 20.1097 57.3718 18.2588C57.3718 16.4079 58.1082 15.154 59.5212 15.154C60.9343 15.154 61.6906 16.4079 61.6906 18.2588C61.6906 20.1097 60.9343 21.3437 59.5212 21.3437ZM59.5411 23.6524C62.825 23.6524 64.9745 21.3238 64.9745 18.2588C64.9745 15.1938 62.825 12.8652 59.5411 12.8652C56.2771 12.8652 54.0879 15.1938 54.0879 18.2588C54.0879 21.3238 56.2771 23.6524 59.5411 23.6524Z" fill="#E9E7DA"/>
<path d="M70.6587 26.8567C72.1713 26.8567 73.5048 26.5183 74.4004 25.7222C75.2164 24.9858 75.7537 23.8713 75.7537 22.3388V13.1439H72.649V14.2385H72.6091C72.0121 13.3827 71.0966 12.8453 69.7432 12.8453C67.2156 12.8453 65.4642 14.955 65.4642 17.9404C65.4642 21.065 67.5937 22.7767 69.8825 22.7767C71.1165 22.7767 71.8927 22.2791 72.4897 21.6024H72.5693V22.6174C72.5693 23.8514 71.9922 24.5679 70.6189 24.5679C69.5442 24.5679 69.0068 24.1101 68.8277 23.5728H65.6831C66.0015 25.7023 67.8525 26.8567 70.6587 26.8567ZM70.6388 20.3685C69.4248 20.3685 68.6287 19.3733 68.6287 17.8408C68.6287 16.2885 69.4248 15.2933 70.6388 15.2933C71.9922 15.2933 72.7087 16.4477 72.7087 17.8209C72.7087 19.2539 72.0519 20.3685 70.6388 20.3685Z" fill="#E9E7DA"/>
<path d="M82.1377 21.3437C80.7246 21.3437 79.9882 20.1097 79.9882 18.2588C79.9882 16.4079 80.7246 15.154 82.1377 15.154C83.5508 15.154 84.3071 16.4079 84.3071 18.2588C84.3071 20.1097 83.5508 21.3437 82.1377 21.3437ZM82.1576 23.6524C85.4415 23.6524 87.591 21.3238 87.591 18.2588C87.591 15.1938 85.4415 12.8652 82.1576 12.8652C78.8936 12.8652 76.7043 15.1938 76.7043 18.2588C76.7043 21.3238 78.8936 23.6524 82.1576 23.6524Z" fill="#E9E7DA"/>
<path d="M88.538 23.334H91.7821V13.144H88.538V23.334ZM88.538 11.7309H91.7821V9.10376H88.538V11.7309Z" fill="#E9E7DA"/>
<path d="M93.1902 26.6974H96.4343V22.2791H96.4741C97.111 23.1349 98.0464 23.6524 99.3599 23.6524C102.027 23.6524 103.798 21.5427 103.798 18.2389C103.798 15.1739 102.146 12.8453 99.4395 12.8453C98.0464 12.8453 97.0513 13.4623 96.3547 14.3778H96.295V13.1439H93.1902V26.6974ZM98.524 21.1447C97.1309 21.1447 96.3348 20.0102 96.3348 18.3583C96.3348 16.7064 97.0513 15.4526 98.4643 15.4526C99.8575 15.4526 100.514 16.6069 100.514 18.3583C100.514 20.0898 99.758 21.1447 98.524 21.1447Z" fill="#E9E7DA"/>
<path d="M109.08 23.6524C111.747 23.6524 113.717 22.498 113.717 20.2689C113.717 17.6617 111.607 17.204 109.816 16.9054C108.523 16.6666 107.368 16.5671 107.368 15.8506C107.368 15.2137 107.985 14.9152 108.781 14.9152C109.677 14.9152 110.294 15.1938 110.413 16.1093H113.399C113.239 14.0992 111.687 12.8453 108.801 12.8453C106.393 12.8453 104.403 13.9599 104.403 16.1093C104.403 18.4976 106.293 18.9753 108.065 19.2738C109.418 19.5127 110.652 19.6122 110.652 20.5277C110.652 21.1845 110.035 21.5427 109.06 21.5427C107.985 21.5427 107.308 21.0451 107.189 20.0301H104.124C104.224 22.2791 106.094 23.6524 109.08 23.6524Z" fill="#E9E7DA"/>
<path d="M118.124 23.6325C119.537 23.6325 120.433 23.0752 121.169 22.0801H121.229V23.334H124.333V13.1439H121.089V18.836C121.089 20.0501 120.413 20.886 119.298 20.886C118.263 20.886 117.766 20.269 117.766 19.1545V13.1439H114.541V19.8311C114.541 22.1 115.775 23.6325 118.124 23.6325Z" fill="#E9E7DA"/>
<path d="M125.744 23.3339H128.988V17.6219C128.988 16.4079 129.585 15.5521 130.6 15.5521C131.575 15.5521 132.033 16.1889 132.033 17.2836V23.3339H135.277V17.6219C135.277 16.4079 135.854 15.5521 136.889 15.5521C137.865 15.5521 138.322 16.1889 138.322 17.2836V23.3339H141.566V16.7064C141.566 14.4176 140.412 12.8453 138.103 12.8453C136.79 12.8453 135.695 13.4026 134.899 14.6366H134.859C134.342 13.5419 133.327 12.8453 131.993 12.8453C130.521 12.8453 129.545 13.5419 128.908 14.5968H128.849V13.1439H125.744V23.3339Z" fill="#E9E7DA"/>
<path fill-rule="evenodd" clip-rule="evenodd" d="M17.8844 33.2852C27.0443 33.2852 34.4698 25.8597 34.4698 16.6998C34.4698 7.54003 27.0443 0.114502 17.8844 0.114502C8.72455 0.114502 1.29904 7.54003 1.29904 16.6998C1.29904 25.8597 8.72455 33.2852 17.8844 33.2852ZM23.0585 7.84066C23.3103 6.94606 22.4422 6.41705 21.6493 6.98192L10.5811 14.8668C9.72127 15.4794 9.85653 16.6998 10.7843 16.6998H13.6989V16.6773H19.3792L14.7508 18.3104L12.7104 25.5591C12.4585 26.4537 13.3266 26.9827 14.1195 26.4178L25.1877 18.5329C26.0476 17.9204 25.9122 16.6998 24.9845 16.6998H20.5647L23.0585 7.84066Z" fill="#E9E7DA"/>
</g>
<defs>
<clipPath id="clip0_1_82">
<rect width="140.976" height="34" fill="white" transform="translate(0.73175)"/>
</clipPath>
</defs>
</svg>
