<svg width="139" height="34" viewBox="0 0 139 34" fill="none" xmlns="http://www.w3.org/2000/svg">
<g clip-path="url(#clip0_1_60)">
<path d="M40.5962 23.8776H50.5076V20.8922H44.1189V9.64734H40.5962V23.8776Z" fill="#E9E7DA"/>
<path d="M56.3798 21.8874C54.9667 21.8874 54.2303 20.6534 54.2303 18.8025C54.2303 16.9516 54.9667 15.6977 56.3798 15.6977C57.7929 15.6977 58.5492 16.9516 58.5492 18.8025C58.5492 20.6534 57.7929 21.8874 56.3798 21.8874ZM56.3997 24.1961C59.6836 24.1961 61.8331 21.8675 61.8331 18.8025C61.8331 15.7375 59.6836 13.4089 56.3997 13.4089C53.1357 13.4089 50.9464 15.7375 50.9464 18.8025C50.9464 21.8675 53.1357 24.1961 56.3997 24.1961Z" fill="#E9E7DA"/>
<path d="M67.5172 27.4004C69.0298 27.4004 70.3633 27.062 71.2589 26.2659C72.0749 25.5295 72.6122 24.415 72.6122 22.8825V13.6876H69.5075V14.7822H69.4677C68.8706 13.9264 67.9551 13.389 66.6017 13.389C64.0741 13.389 62.3227 15.4987 62.3227 18.4841C62.3227 21.6087 64.4522 23.3204 66.741 23.3204C67.975 23.3204 68.7512 22.8228 69.3482 22.1461H69.4278V23.1611C69.4278 24.3951 68.8507 25.1116 67.4774 25.1116C66.4027 25.1116 65.8653 24.6538 65.6862 24.1165H62.5416C62.86 26.246 64.711 27.4004 67.5172 27.4004ZM67.4973 20.9122C66.2833 20.9122 65.4872 19.917 65.4872 18.3846C65.4872 16.8322 66.2833 15.837 67.4973 15.837C68.8507 15.837 69.5672 16.9914 69.5672 18.3646C69.5672 19.7976 68.9104 20.9122 67.4973 20.9122Z" fill="#E9E7DA"/>
<path d="M78.9963 21.8874C77.5832 21.8874 76.8468 20.6534 76.8468 18.8025C76.8468 16.9516 77.5832 15.6977 78.9963 15.6977C80.4094 15.6977 81.1656 16.9516 81.1656 18.8025C81.1656 20.6534 80.4094 21.8874 78.9963 21.8874ZM79.0162 24.1961C82.3001 24.1961 84.4498 21.8675 84.4498 18.8025C84.4498 15.7375 82.3001 13.4089 79.0162 13.4089C75.7522 13.4089 73.5629 15.7375 73.5629 18.8025C73.5629 21.8675 75.7522 24.1961 79.0162 24.1961Z" fill="#E9E7DA"/>
<path d="M85.3968 23.8776H88.6409V13.6875H85.3968V23.8776ZM85.3968 12.2745H88.6409V9.64734H85.3968V12.2745Z" fill="#E9E7DA"/>
<path d="M90.0482 27.2411H93.2923V22.8228H93.3321C93.969 23.6786 94.9044 24.1961 96.2179 24.1961C98.8849 24.1961 100.656 22.0864 100.656 18.7826C100.656 15.7176 99.0043 13.389 96.2976 13.389C94.9044 13.389 93.9093 14.006 93.2127 14.9215H93.153V13.6876H90.0482V27.2411ZM95.382 21.6884C93.9889 21.6884 93.1928 20.5539 93.1928 18.902C93.1928 17.2501 93.9093 15.9963 95.3223 15.9963C96.7155 15.9963 97.3723 17.1506 97.3723 18.902C97.3723 20.6335 96.616 21.6884 95.382 21.6884Z" fill="#E9E7DA"/>
<path d="M105.939 24.1961C108.606 24.1961 110.576 23.0417 110.576 20.8126C110.576 18.2054 108.466 17.7477 106.675 17.4491C105.381 17.2103 104.227 17.1108 104.227 16.3943C104.227 15.7574 104.844 15.4589 105.64 15.4589C106.536 15.4589 107.153 15.7375 107.272 16.653H110.257C110.098 14.6429 108.546 13.389 105.66 13.389C103.252 13.389 101.262 14.5036 101.262 16.653C101.262 19.0413 103.152 19.519 104.924 19.8175C106.277 20.0564 107.511 20.1559 107.511 21.0714C107.511 21.7282 106.894 22.0864 105.919 22.0864C104.844 22.0864 104.167 21.5888 104.048 20.5738H100.983C101.082 22.8228 102.953 24.1961 105.939 24.1961Z" fill="#E9E7DA"/>
<path d="M114.982 24.1762C116.395 24.1762 117.29 23.6189 118.027 22.6238H118.087V23.8777H121.191V13.6876H117.947V19.3797C117.947 20.5938 117.271 21.4297 116.156 21.4297C115.121 21.4297 114.624 20.8127 114.624 19.6982V13.6876H111.399V20.3748C111.399 22.6437 112.633 24.1762 114.982 24.1762Z" fill="#E9E7DA"/>
<path d="M122.603 23.8776H125.847V18.1656C125.847 16.9516 126.444 16.0958 127.459 16.0958C128.434 16.0958 128.892 16.7326 128.892 17.8273V23.8776H132.136V18.1656C132.136 16.9516 132.713 16.0958 133.748 16.0958C134.723 16.0958 135.181 16.7326 135.181 17.8273V23.8776H138.425V17.2501C138.425 14.9613 137.271 13.389 134.962 13.389C133.649 13.389 132.554 13.9463 131.758 15.1803H131.718C131.201 14.0856 130.186 13.389 128.852 13.389C127.379 13.389 126.404 14.0856 125.767 15.1405H125.708V13.6876H122.603V23.8776Z" fill="#E9E7DA"/>
<path fill-rule="evenodd" clip-rule="evenodd" d="M7.44491 3.22713C6.25851 4.05669 5.18568 5.03751 4.25437 6.14161C8.06014 5.78829 12.8952 6.36523 18.5087 9.17199C24.5031 12.1691 29.3302 12.2705 32.6895 11.6225C32.3847 10.6996 32.0009 9.8126 31.5464 8.9694C27.7008 9.375 22.7708 8.83813 17.0253 5.96546C13.3769 4.14124 10.1608 3.38978 7.44491 3.22713ZM29.3 5.77197C26.2631 2.37889 21.8498 0.24353 16.9377 0.24353C15.4952 0.24353 14.0956 0.427717 12.7613 0.773831C14.5684 1.26692 16.4882 1.9883 18.5087 2.99858C22.7152 5.10182 26.3469 5.77902 29.3 5.77197ZM33.4077 14.8619C29.3493 15.6633 23.745 15.4987 17.0253 12.1389C10.7431 8.99776 5.743 9.03732 2.37076 9.78673C2.19669 9.82537 2.02673 9.86601 1.86087 9.9083C1.41935 10.8685 1.06693 11.8782 0.814057 12.9268C1.08414 12.8546 1.36322 12.786 1.65117 12.722C5.74229 11.8129 11.5227 11.8524 18.5087 15.3454C24.791 18.4865 29.7911 18.4469 33.1634 17.6975C33.2789 17.6719 33.3927 17.6454 33.5047 17.618C33.517 17.3565 33.5231 17.0934 33.5231 16.8289C33.5231 16.1634 33.484 15.507 33.4077 14.8619ZM32.9632 21.1181C28.9441 21.8207 23.5031 21.5511 17.0253 18.3123C10.7431 15.1712 5.743 15.2107 2.37076 15.9601C1.62222 16.1264 0.948844 16.329 0.354831 16.5429C0.353212 16.638 0.352402 16.7333 0.352402 16.8289C0.352402 25.9887 7.77791 33.4142 16.9377 33.4142C24.6144 33.4142 31.0729 28.1989 32.9632 21.1181Z" fill="#E9E7DA"/>
</g>
<defs>
<clipPath id="clip0_1_60">
<rect width="138.488" height="34" fill="white" transform="translate(0.26828)"/>
</clipPath>
</defs>
</svg>
