<svg width="31" height="18" viewBox="0 0 31 18" fill="none" xmlns="http://www.w3.org/2000/svg">
<path d="M30.1523 16.8745C30.2289 16.2604 30.2683 15.6348 30.2683 15C30.2683 6.71573 23.5526 0 15.2683 0C6.98401 0 0.26828 6.71573 0.26828 15C0.26828 15.8147 0.33323 16.6142 0.45824 17.3937C1.14722 16.4505 2.22254 15.7772 3.38404 15.5724C4.64073 15.3508 5.78286 15.6556 6.74855 16.2253C6.6915 15.8251 6.66198 15.416 6.66198 15C6.66198 10.2469 10.5152 6.3937 15.2683 6.3937C20.0214 6.3937 23.8746 10.2469 23.8746 15C23.8746 15.3134 23.8578 15.6229 23.8252 15.9276C24.7705 15.3243 25.9015 14.9796 27.1654 15.1573C28.333 15.3214 29.4308 15.9564 30.1523 16.8745Z" fill="#E9E7DA"/>
</svg>
