<svg width="34" height="34" viewBox="0 0 34 34" fill="none" xmlns="http://www.w3.org/2000/svg">
<path fill-rule="evenodd" clip-rule="evenodd" d="M7.44491 3.22713C6.25851 4.05669 5.18568 5.03751 4.25437 6.14161C8.06014 5.78829 12.8952 6.36523 18.5087 9.17199C24.5031 12.1691 29.3302 12.2705 32.6895 11.6225C32.3847 10.6996 32.0009 9.8126 31.5464 8.9694C27.7008 9.375 22.7708 8.83813 17.0253 5.96546C13.3769 4.14124 10.1608 3.38978 7.44491 3.22713ZM29.3 5.77197C26.2631 2.37889 21.8498 0.24353 16.9377 0.24353C15.4952 0.24353 14.0956 0.427717 12.7613 0.773831C14.5684 1.26692 16.4882 1.9883 18.5087 2.99858C22.7152 5.10182 26.3469 5.77902 29.3 5.77197ZM33.4077 14.8619C29.3493 15.6633 23.745 15.4987 17.0253 12.1389C10.7431 8.99776 5.743 9.03732 2.37076 9.78673C2.19669 9.82537 2.02673 9.86601 1.86087 9.9083C1.41935 10.8685 1.06693 11.8782 0.814057 12.9268C1.08414 12.8546 1.36322 12.786 1.65117 12.722C5.74229 11.8129 11.5227 11.8524 18.5087 15.3454C24.791 18.4865 29.7911 18.4469 33.1634 17.6975C33.2789 17.6719 33.3927 17.6454 33.5047 17.618C33.517 17.3565 33.5231 17.0934 33.5231 16.8289C33.5231 16.1634 33.484 15.507 33.4077 14.8619ZM32.9632 21.1181C28.9441 21.8207 23.5031 21.5511 17.0253 18.3123C10.7431 15.1712 5.743 15.2107 2.37076 15.9601C1.62222 16.1264 0.948844 16.329 0.354831 16.5429C0.353212 16.638 0.352402 16.7333 0.352402 16.8289C0.352402 25.9887 7.77791 33.4142 16.9377 33.4142C24.6144 33.4142 31.0729 28.1989 32.9632 21.1181Z" fill="#E9E7DA"/>
</svg>
