<svg width="34" height="34" viewBox="0 0 34 34" fill="none" xmlns="http://www.w3.org/2000/svg">
<path fill-rule="evenodd" clip-rule="evenodd" d="M16.9621 33.4388C26.122 33.4388 33.5475 26.0132 33.5475 16.8534C33.5475 7.69358 26.122 0.268066 16.9621 0.268066C7.80228 0.268066 0.37677 7.69358 0.37677 16.8534C0.37677 26.0132 7.80228 33.4388 16.9621 33.4388ZM19.5221 13.0824C20.9358 11.6686 20.9358 9.37638 19.5221 7.96256C18.1082 6.54876 15.8161 6.54876 14.4022 7.96256C12.9885 9.37638 12.9885 11.6686 14.4022 13.0824L16.9621 15.6423L19.5221 13.0824ZM20.7332 19.4133C22.147 20.8272 24.4392 20.8272 25.853 19.4133C27.2668 17.9995 27.2668 15.7073 25.853 14.2935C24.4392 12.8798 22.147 12.8798 20.7332 14.2935L18.1733 16.8535L20.7332 19.4133ZM19.5221 25.7443C20.9358 24.3305 20.9358 22.0383 19.5221 20.6245L16.9621 18.0646L14.4022 20.6245C12.9885 22.0383 12.9885 24.3305 14.4022 25.7443C15.8161 27.1581 18.1082 27.1581 19.5221 25.7443ZM8.07124 19.4133C6.65747 17.9995 6.65747 15.7073 8.07124 14.2935C9.48509 12.8798 11.7773 12.8798 13.1911 14.2935L15.751 16.8535L13.1911 19.4133C11.7773 20.8272 9.48509 20.8272 8.07124 19.4133Z" fill="#E9E7DA"/>
</svg>
