<svg width="142" height="34" viewBox="0 0 142 34" fill="none" xmlns="http://www.w3.org/2000/svg">
<g clip-path="url(#clip0_1_71)">
<path d="M43.2789 24.3168H53.1903V21.3314H46.8016V10.0865H43.2789V24.3168Z" fill="#E9E7DA"/>
<path d="M59.0625 22.3266C57.6494 22.3266 56.913 21.0926 56.913 19.2417C56.913 17.3908 57.6494 16.1369 59.0625 16.1369C60.4755 16.1369 61.2318 17.3908 61.2318 19.2417C61.2318 21.0926 60.4755 22.3266 59.0625 22.3266ZM59.0824 24.6353C62.3663 24.6353 64.5157 22.3067 64.5157 19.2417C64.5157 16.1767 62.3663 13.8481 59.0824 13.8481C55.8184 13.8481 53.6291 16.1767 53.6291 19.2417C53.6291 22.3067 55.8184 24.6353 59.0824 24.6353Z" fill="#E9E7DA"/>
<path d="M70.1999 27.8396C71.7124 27.8396 73.0459 27.5012 73.9415 26.7051C74.7575 25.9687 75.2949 24.8542 75.2949 23.3217V14.1268H72.1901V15.2214H72.1503C71.5532 14.3656 70.6377 13.8282 69.2844 13.8282C66.7567 13.8282 65.0053 15.9379 65.0053 18.9233C65.0053 22.048 67.1349 23.7596 69.4237 23.7596C70.6576 23.7596 71.4338 23.262 72.0309 22.5853H72.1105V23.6003C72.1105 24.8343 71.5333 25.5508 70.1601 25.5508C69.0853 25.5508 68.548 25.093 68.3688 24.5557H65.2243C65.5427 26.6852 67.3936 27.8396 70.1999 27.8396ZM70.18 21.3514C68.9659 21.3514 68.1698 20.3562 68.1698 18.8238C68.1698 17.2714 68.9659 16.2762 70.18 16.2762C71.5333 16.2762 72.2498 17.4306 72.2498 18.8039C72.2498 20.2368 71.593 21.3514 70.18 21.3514Z" fill="#E9E7DA"/>
<path d="M81.6789 22.3266C80.2658 22.3266 79.5295 21.0926 79.5295 19.2417C79.5295 17.3908 80.2658 16.1369 81.6789 16.1369C83.092 16.1369 83.848 17.3908 83.848 19.2417C83.848 21.0926 83.092 22.3266 81.6789 22.3266ZM81.6988 24.6353C84.9824 24.6353 87.1319 22.3067 87.1319 19.2417C87.1319 16.1767 84.9824 13.8481 81.6988 13.8481C78.4348 13.8481 76.2456 16.1767 76.2456 19.2417C76.2456 22.3067 78.4348 24.6353 81.6988 24.6353Z" fill="#E9E7DA"/>
<path d="M88.0797 24.3168H91.3238V14.1267H88.0797V24.3168ZM88.0797 12.7137H91.3238V10.0865H88.0797V12.7137Z" fill="#E9E7DA"/>
<path d="M92.7311 27.6803H95.9752V23.262H96.015C96.6519 24.1178 97.5873 24.6353 98.9008 24.6353C101.568 24.6353 103.339 22.5256 103.339 19.2218C103.339 16.1568 101.687 13.8282 98.9804 13.8282C97.5873 13.8282 96.5921 14.4452 95.8956 15.3607H95.8359V14.1268H92.7311V27.6803ZM98.0649 22.1276C96.6718 22.1276 95.8757 20.9931 95.8757 19.3412C95.8757 17.6893 96.5922 16.4355 98.0052 16.4355C99.3984 16.4355 100.055 17.5898 100.055 19.3412C100.055 21.0727 99.2989 22.1276 98.0649 22.1276Z" fill="#E9E7DA"/>
<path d="M108.621 24.6353C111.288 24.6353 113.258 23.4809 113.258 21.2519C113.258 18.6446 111.148 18.1869 109.357 17.8883C108.063 17.6495 106.909 17.55 106.909 16.8335C106.909 16.1966 107.526 15.8981 108.322 15.8981C109.218 15.8981 109.835 16.1767 109.954 17.0922H112.94C112.78 15.0821 111.228 13.8282 108.342 13.8282C105.934 13.8282 103.944 14.9428 103.944 17.0922C103.944 19.4805 105.834 19.9582 107.606 20.2567C108.959 20.4956 110.193 20.5951 110.193 21.5106C110.193 22.1674 109.576 22.5256 108.601 22.5256C107.526 22.5256 106.849 22.0281 106.73 21.013H103.665C103.764 23.262 105.635 24.6353 108.621 24.6353Z" fill="#E9E7DA"/>
<path d="M117.665 24.6153C119.078 24.6153 119.973 24.058 120.71 23.0629H120.769V24.3168H123.874V14.1267H120.63V19.8188C120.63 21.0329 119.953 21.8688 118.839 21.8688C117.804 21.8688 117.306 21.2518 117.306 20.1372V14.1267H114.082V20.8139C114.082 23.0828 115.316 24.6153 117.665 24.6153Z" fill="#E9E7DA"/>
<path d="M125.286 24.3168H128.53V18.6048C128.53 17.3908 129.127 16.535 130.142 16.535C131.117 16.535 131.575 17.1719 131.575 18.2665V24.3168H134.819V18.6048C134.819 17.3908 135.396 16.535 136.431 16.535C137.406 16.535 137.864 17.1719 137.864 18.2665V24.3168H141.108V17.6893C141.108 15.4005 139.954 13.8282 137.645 13.8282C136.332 13.8282 135.237 14.3855 134.441 15.6195H134.401C133.884 14.5248 132.869 13.8282 131.535 13.8282C130.062 13.8282 129.087 14.5248 128.45 15.5797H128.39V14.1268H125.286V24.3168Z" fill="#E9E7DA"/>
<path fill-rule="evenodd" clip-rule="evenodd" d="M17.4256 33.4388C26.5855 33.4388 34.0109 26.0132 34.0109 16.8534C34.0109 7.69358 26.5855 0.268066 17.4256 0.268066C8.26574 0.268066 0.840225 7.69358 0.840225 16.8534C0.840225 26.0132 8.26574 33.4388 17.4256 33.4388ZM19.9855 13.0824C21.3992 11.6686 21.3992 9.37638 19.9855 7.96256C18.5717 6.54876 16.2795 6.54876 14.8657 7.96256C13.452 9.37638 13.452 11.6686 14.8657 13.0824L17.4256 15.6423L19.9855 13.0824ZM21.1967 19.4133C22.6105 20.8272 24.9027 20.8272 26.3165 19.4133C27.7302 17.9995 27.7302 15.7073 26.3165 14.2935C24.9027 12.8798 22.6105 12.8798 21.1967 14.2935L18.6368 16.8535L21.1967 19.4133ZM19.9855 25.7443C21.3992 24.3305 21.3992 22.0383 19.9855 20.6245L17.4256 18.0646L14.8657 20.6245C13.452 22.0383 13.452 24.3305 14.8657 25.7443C16.2795 27.1581 18.5717 27.1581 19.9855 25.7443ZM8.5347 19.4133C7.12093 17.9995 7.12093 15.7073 8.5347 14.2935C9.94854 12.8798 12.2407 12.8798 13.6545 14.2935L16.2144 16.8535L13.6545 19.4133C12.2407 20.8272 9.94854 20.8272 8.5347 19.4133Z" fill="#E9E7DA"/>
</g>
<defs>
<clipPath id="clip0_1_71">
<rect width="140.976" height="34" fill="white" transform="translate(0.756104)"/>
</clipPath>
</defs>
</svg>
